<svg xmlns="http://www.w3.org/2000/svg" xmlns:xlink="http://www.w3.org/1999/xlink" width="209" height="23" viewBox="0 0 209 23">
  <defs>
    <path id="inmed-logo-a" d="M11.2202917,0.106083333 C5.02391667,0.106083333 0,5.13 0,11.326375 C0,17.5235417 5.02391667,22.5466667 11.2202917,22.5466667 L89.7639167,22.5466667 C95.9610833,22.5466667 100.984208,17.5235417 100.984208,11.326375 C100.984208,5.13 95.9610833,0.106083333 89.7639167,0.106083333 L11.2202917,0.106083333 L11.2202917,0.106083333 Z"/>
  </defs>
  <g fill="none" fill-rule="evenodd">
    <path fill="#E1002B" d="M0,22.4405833 L3.68679167,22.4405833 L3.68679167,0 L0,0 L0,22.4405833 Z M11.359625,22.4405833 L7.75675,22.4405833 L7.75675,0 L11.52825,0 L23.7365417,16.6519167 L23.7365417,0 L27.338625,0 L27.338625,22.4405833 L23.567125,22.4405833 L11.359625,5.787875 L11.359625,22.4405833 Z M37.3959583,22.4405833 L31.309625,22.4405833 L31.3104167,0 L38.7125,0 L44.619125,13.012625 L50.5249583,0 L57.9278333,0 L57.9278333,22.4405833 L51.8415,22.4405833 L51.8415,8.99016667 L46.514375,20.4780417 L42.7230833,20.4780417 L37.39675,8.99016667 L37.3959583,22.4405833 Z M77.4717083,22.4405833 L61.83075,22.4405833 L61.83075,0 L77.7155417,0 L76.5415,5.12208333 L68.278875,5.12208333 L68.278875,8.87458333 L75.061875,8.87458333 L75.061875,13.52325 L68.278875,13.52325 L68.278875,17.3177083 L77.4717083,17.3177083 L77.4717083,22.4405833 Z M90.0370417,22.4405833 L81.0429167,22.4405833 L81.0429167,11.2202917 L81.0429167,0 L90.0370417,0 C98.1959583,0 101.182917,4.267875 101.182917,10.9028333 C101.182917,11.0112917 101.175,11.1134167 101.173417,11.2202917 C101.175,11.3271667 101.182917,11.4292917 101.182917,11.5369583 C101.182917,18.1719167 98.1959583,22.4405833 90.0370417,22.4405833 L90.0370417,22.4405833 Z M88.1774167,17.2100417 C93.9684583,17.2100417 94.7625,16.228375 94.7625,11.283625 C94.7625,11.2614583 94.7617083,11.2424583 94.7617083,11.2202917 C94.7617083,11.198125 94.7625,11.179125 94.7625,11.1569583 C94.7625,6.21220833 93.9684583,5.23054167 88.1774167,5.23054167 L86.951125,5.23054167 L86.951125,11.2202917 L86.951125,17.2100417 L88.1774167,17.2100417 Z"/>
    <g transform="translate(108)">
      <mask id="inmed-logo-b" fill="#fff">
        <use xlink:href="#inmed-logo-a"/>
      </mask>
      <polygon fill="#E1002B" points="-2 24.791 17 24.791 17 -2.138 -2 -2.138" mask="url(#inmed-logo-b)"/>
      <polygon fill="#BC003E" points="16 24.791 30 24.791 30 -2.138 16 -2.138" mask="url(#inmed-logo-b)"/>
      <polygon fill="#99135F" points="29 24.791 37 24.791 37 -2.138 29 -2.138" mask="url(#inmed-logo-b)"/>
      <polygon fill="#494495" points="36 24.791 46 24.791 46 -2.138 36 -2.138" mask="url(#inmed-logo-b)"/>
      <polygon fill="#009FC3" points="45 24.791 65 24.791 65 -2.138 45 -2.138" mask="url(#inmed-logo-b)"/>
      <polygon fill="#6EC3B5" points="63 24.791 69 24.791 69 -2.138 63 -2.138" mask="url(#inmed-logo-b)"/>
      <polygon fill="#447831" points="67 24.791 72 24.791 72 -2.138 67 -2.138" mask="url(#inmed-logo-b)"/>
      <polygon fill="#91BF06" points="72 24.791 84 24.791 84 -2.138 72 -2.138" mask="url(#inmed-logo-b)"/>
      <polygon fill="#F3C200" points="83 24.791 89 24.791 89 -2.138 83 -2.138" mask="url(#inmed-logo-b)"/>
      <polygon fill="#F3E815" points="88 24.791 103.709 24.791 103.709 -2.138 88 -2.138" mask="url(#inmed-logo-b)"/>
    </g>
  </g>
</svg>
